<?xml version="1.0" encoding="UTF-8" standalone="no"?>
<!DOCTYPE svg PUBLIC "-//W3C//DTD SVG 1.1//EN" "http://www.w3.org/Graphics/SVG/1.1/DTD/svg11.dtd">
<svg xmlns="http://www.w3.org/2000/svg" version="1.1" viewBox="0.00 0.00 1111.00 286.00">
<g stroke-width="2.00" fill="none" stroke-linecap="butt">
<path stroke="#1d836a" vector-effect="non-scaling-stroke" d="
  M 254.84 192.08
  Q 255.11 191.94 255.19 191.69
  Q 255.32 191.27 254.92 191.10
  Q 254.55 190.94 254.21 191.23
  Q 253.91 191.50 253.96 191.92"
/>
<path stroke="#8cbeb2" vector-effect="non-scaling-stroke" d="
  M 289.02 142.97
  Q 288.22 143.81 288.26 144.60
  A 0.39 0.38 -15.0 0 0 288.82 144.92
  Q 289.91 144.37 290.03 143.01"
/>
<path stroke="#8cbeb2" vector-effect="non-scaling-stroke" d="
  M 321.62 184.62
  Q 320.87 184.88 320.36 185.89
  A 0.28 0.28 0.0 0 0 320.65 186.30
  Q 321.94 186.13 322.77 185.11"
/>
<path stroke="#8cbeb2" vector-effect="non-scaling-stroke" d="
  M 920.88 171.38
  C 914.08 174.27 902.52 177.67 903.90 187.55
  Q 904.38 191.03 907.53 193.08
  C 911.60 195.71 917.57 193.34 920.81 190.08
  A 2.03 2.01 67.7 0 0 921.40 188.65
  L 921.40 171.72
  A 0.37 0.37 0.0 0 0 920.88 171.38"
/>
<path stroke="#8cbeb2" vector-effect="non-scaling-stroke" d="
  M 1029.65 163.53
  L 1050.35 163.53
  A 0.92 0.91 -86.8 0 0 1051.26 162.71
  C 1051.81 157.64 1050.94 149.72 1045.97 147.06
  C 1039.97 143.84 1034.08 147.59 1031.61 153.38
  Q 1029.62 158.03 1029.22 163.06
  A 0.43 0.43 0.0 0 0 1029.65 163.53"
/>
</g>
<path fill="#20886e" d="
  M 680.45 64.74
  Q 681.04 64.74 681.39 64.14
  C 687.71 53.60 698.52 47.16 710.73 47.43
  C 729.04 47.84 743.15 63.20 740.94 81.63
  C 739.69 92.05 732.25 102.31 725.06 109.82
  Q 710.71 124.80 689.98 138.21
  Q 685.04 141.40 680.72 143.36
  Q 680.65 143.39 680.53 143.39
  Q 680.40 143.39 680.33 143.36
  Q 676.01 141.41 671.06 138.23
  Q 650.31 124.86 635.93 109.90
  C 628.73 102.40 621.27 92.16 620.00 81.74
  C 617.75 63.31 631.84 47.93 650.14 47.49
  C 662.35 47.19 673.18 53.61 679.51 64.14
  Q 679.87 64.74 680.45 64.74
  Z"
/>
<path fill="#197e65" d="
  M 95.49 224.38
  Q 94.92 224.64 94.57 224.97
  A 1.59 1.57 17.5 0 1 93.85 225.34
  Q 89.83 226.25 83.62 225.36
  Q 75.92 224.27 71.63 218.75
  C 67.22 213.07 70.52 202.27 72.79 196.02
  Q 80.15 175.75 93.18 146.68
  Q 107.67 114.36 116.11 93.67
  Q 117.76 89.61 119.93 82.16
  Q 121.17 77.91 120.84 73.68
  Q 120.62 70.93 118.53 69.43
  C 114.03 66.23 105.96 69.39 101.47 71.71
  Q 83.47 80.99 71.16 97.39
  C 63.59 107.49 56.79 122.74 59.11 135.50
  C 59.80 139.25 61.43 141.81 65.37 142.32
  A 1.43 1.42 26.7 0 1 66.18 144.76
  Q 63.57 147.29 59.72 147.50
  Q 48.34 148.15 43.38 138.13
  C 39.70 130.71 40.98 120.55 44.16 112.95
  Q 47.91 103.95 53.09 97.12
  Q 70.54 74.09 97.97 64.95
  C 108.72 61.37 136.60 56.61 139.17 74.16
  Q 140.18 81.07 137.93 89.20
  Q 135.75 97.03 132.59 104.58
  Q 125.01 122.73 117.09 140.96
  A 0.54 0.53 -87.7 0 0 117.75 141.68
  Q 119.10 141.21 120.85 140.08
  Q 133.63 131.81 142.30 124.04
  C 147.75 119.16 151.61 116.00 155.60 111.99
  C 162.49 105.05 169.57 98.25 177.13 90.33
  C 190.15 76.67 203.19 63.29 218.43 54.46
  Q 224.62 50.87 233.86 49.70
  Q 235.56 49.48 237.60 50.03
  C 239.19 50.45 240.63 50.21 242.52 50.71
  C 247.14 51.95 250.78 53.23 253.54 56.38
  A 0.85 0.85 0.0 0 1 252.80 57.78
  C 240.70 56.34 229.47 62.78 219.60 70.12
  C 201.46 83.61 182.64 102.57 167.23 116.80
  C 155.48 127.64 145.27 135.21 131.71 144.57
  A 1.34 1.33 59.8 0 0 131.27 146.26
  Q 144.69 173.38 162.71 197.48
  Q 173.69 212.15 186.52 222.97
  C 191.42 227.10 198.26 231.49 203.72 234.70
  Q 212.07 239.59 220.76 241.84
  Q 240.33 246.90 256.56 237.22
  A 1.16 1.16 0.0 0 1 258.24 238.62
  Q 258.16 238.86 257.75 239.24
  Q 254.67 242.20 249.48 244.72
  Q 239.56 249.55 229.74 250.63
  Q 227.16 250.91 223.63 251.26
  Q 216.13 251.99 205.84 250.11
  Q 193.11 247.78 179.99 239.70
  Q 167.04 231.72 155.53 218.17
  Q 140.95 201.00 129.11 178.88
  Q 123.56 168.52 116.06 153.97
  Q 115.72 153.32 115.18 152.66
  A 1.31 1.31 0.0 0 0 113.08 152.75
  L 111.24 155.48
  A 1.55 1.48 -17.0 0 0 111.06 155.80
  Q 102.49 174.85 96.19 193.95
  Q 93.65 201.66 92.68 210.24
  Q 91.84 217.65 95.72 223.59
  A 0.54 0.54 0.0 0 1 95.49 224.38
  Z"
/>
<path fill="#197e65" d="
  M 872.86 184.06
  A 1.88 1.88 0.0 0 1 876.18 185.68
  L 873.18 197.24
  A 0.99 0.97 80.3 0 1 872.78 197.82
  Q 871.49 198.68 865.75 200.70
  Q 843.22 208.60 821.84 202.17
  Q 803.79 196.74 794.66 179.62
  Q 792.82 176.16 791.54 168.25
  Q 790.20 159.93 791.64 150.05
  Q 793.31 138.63 800.88 129.31
  Q 812.61 114.87 830.86 112.06
  Q 845.64 109.80 858.47 112.42
  Q 865.98 113.96 873.42 117.26
  A 1.55 1.54 12.1 0 1 874.34 118.67
  L 874.34 140.04
  A 0.77 0.77 0.0 0 1 873.57 140.81
  L 869.13 140.81
  A 0.68 0.68 0.0 0 1 868.46 140.22
  C 867.41 132.47 862.75 123.28 855.84 119.22
  Q 851.10 116.42 844.40 116.35
  C 834.80 116.25 827.38 118.99 821.60 126.88
  Q 815.98 134.56 814.06 144.07
  Q 811.32 157.71 814.12 170.87
  C 817.80 188.22 831.20 201.33 849.93 198.05
  Q 864.04 195.57 872.86 184.06
  Z"
/>
<path fill="#197e65" d="
  M 254.84 192.08
  Q 255.11 191.94 255.19 191.69
  Q 255.32 191.27 254.92 191.10
  Q 254.55 190.94 254.21 191.23
  Q 253.91 191.50 253.96 191.92
  Q 253.42 191.98 253.19 192.16
  C 245.85 197.91 236.01 201.84 226.74 199.74
  C 218.00 197.75 215.55 190.21 216.38 181.99
  A 0.72 0.72 0.0 0 0 215.06 181.52
  C 208.12 192.08 196.50 200.41 183.57 200.19
  Q 178.74 200.11 174.80 197.59
  C 166.00 191.97 165.52 182.59 166.89 173.03
  Q 167.61 168.01 169.27 164.10
  Q 175.92 148.50 189.36 138.31
  Q 200.72 129.70 213.98 128.45
  Q 224.82 127.42 231.16 135.57
  A 0.72 0.72 0.0 0 0 232.39 135.42
  Q 233.37 133.18 235.42 131.87
  A 2.89 2.77 -67.2 0 1 236.23 131.52
  Q 240.90 130.34 246.86 132.90
  A 2.67 2.66 7.1 0 1 248.44 134.93
  Q 248.73 136.78 248.09 139.11
  Q 246.74 144.07 245.26 147.23
  Q 240.67 157.02 235.97 170.44
  C 234.43 174.83 232.49 185.55 236.20 189.33
  Q 238.13 191.30 241.72 190.69
  C 247.99 189.62 253.38 184.05 257.18 178.92
  Q 261.81 172.65 263.95 168.33
  A 6.52 2.23 -64.4 0 0 264.35 167.50
  Q 265.39 165.18 270.39 142.70
  Q 272.19 134.62 270.98 130.52
  A 0.69 0.69 0.0 0 1 271.42 129.68
  C 276.48 127.93 288.46 126.08 290.29 133.24
  Q 291.15 136.59 289.02 142.97
  Q 288.22 143.81 288.26 144.60
  A 0.39 0.38 -15.0 0 0 288.82 144.92
  Q 289.91 144.37 290.03 143.01
  C 291.22 142.65 291.33 141.80 291.92 141.10
  C 298.58 133.27 305.36 128.01 315.69 127.89
  C 325.89 127.78 333.55 133.50 335.48 143.49
  Q 335.87 145.53 336.10 148.47
  Q 336.26 150.57 335.94 153.46
  Q 333.98 171.21 321.62 184.62
  Q 320.87 184.88 320.36 185.89
  A 0.28 0.28 0.0 0 0 320.65 186.30
  Q 321.94 186.13 322.77 185.11
  Q 323.80 184.88 324.14 184.67
  Q 335.49 177.71 343.00 166.92
  A 2.96 2.84 -21.4 0 0 343.43 165.99
  C 345.10 159.41 346.92 152.21 349.11 144.93
  Q 350.32 140.90 351.14 136.93
  Q 352.19 131.90 350.06 127.85
  A 1.05 1.03 62.9 0 1 350.51 126.43
  Q 357.84 122.76 364.75 125.72
  C 370.30 128.10 370.50 134.13 369.51 139.51
  Q 368.53 144.76 364.36 157.24
  C 361.55 165.65 358.57 176.49 360.73 185.24
  Q 361.17 187.05 363.50 189.13
  A 1.51 1.49 66.2 0 0 364.48 189.52
  Q 367.80 189.61 370.11 187.07
  Q 376.06 180.50 379.95 171.65
  Q 385.69 158.58 390.92 142.90
  Q 391.10 142.36 391.53 138.63
  A 1.02 1.01 -10.6 0 1 392.08 137.84
  C 397.55 135.10 408.01 137.19 409.25 143.99
  A 2.22 2.21 47.7 0 1 409.21 144.92
  C 407.72 150.30 405.47 156.26 402.52 165.51
  C 400.76 171.04 398.01 184.88 402.27 189.80
  A 2.29 2.23 -9.7 0 0 403.17 190.42
  C 411.28 193.54 421.00 177.63 424.01 171.53
  Q 425.98 167.53 428.43 160.51
  Q 432.87 147.80 431.35 135.00
  Q 430.83 130.63 427.14 125.21
  A 0.70 0.69 49.0 0 1 427.20 124.34
  C 433.30 117.87 442.52 122.47 445.09 129.68
  Q 447.00 135.04 446.12 141.23
  C 443.46 159.89 433.93 179.71 419.29 192.05
  Q 412.52 197.76 403.23 199.18
  C 395.64 200.35 387.28 196.91 384.83 189.21
  Q 383.48 184.95 383.40 181.94
  A 0.97 0.97 0.0 0 0 381.58 181.49
  C 376.82 190.00 371.16 197.33 361.56 199.18
  C 351.38 201.14 344.65 196.13 342.42 186.73
  Q 341.49 182.82 341.65 178.98
  A 0.76 0.76 0.0 0 0 340.36 178.40
  Q 332.68 185.84 323.45 190.10
  C 320.37 191.53 316.71 192.51 312.84 193.71
  A 4.93 4.62 20.3 0 0 311.89 194.11
  Q 303.10 198.91 293.30 199.93
  C 289.25 200.35 284.18 199.86 280.99 198.55
  Q 277.27 197.02 274.14 193.33
  A 0.89 0.89 0.0 0 0 272.63 193.60
  L 260.86 225.55
  A 1.48 1.47 7.3 0 1 259.62 226.50
  C 254.90 226.98 250.28 226.87 246.04 224.37
  A 2.65 2.62 86.5 0 1 245.26 223.67
  Q 243.89 221.85 245.41 217.92
  Q 250.04 205.97 253.86 195.62
  Q 254.76 193.20 254.84 192.08
  Z
  M 190.73 189.21
  Q 196.85 190.23 202.35 186.01
  C 213.63 177.34 220.19 163.20 224.93 149.85
  Q 226.17 146.35 225.89 144.11
  C 225.18 138.48 220.40 134.21 214.55 135.77
  C 200.08 139.64 189.67 159.46 186.66 172.41
  C 185.47 177.54 184.59 185.79 189.65 188.81
  A 2.90 2.88 65.2 0 0 190.73 189.21
  Z
  M 303.91 138.97
  C 296.79 142.55 290.53 150.70 286.61 158.12
  Q 284.03 163.00 280.24 173.02
  Q 277.82 179.42 278.21 185.27
  Q 278.47 189.11 281.59 191.15
  C 285.87 193.93 293.51 191.29 297.06 188.44
  Q 311.54 176.88 316.67 158.52
  C 317.79 154.51 317.78 150.88 318.18 146.93
  A 4.24 4.18 42.2 0 0 318.10 145.52
  Q 317.49 142.82 317.08 141.54
  Q 316.70 140.31 313.75 138.17
  A 2.35 2.26 67.9 0 0 312.85 137.77
  Q 308.13 136.85 303.91 138.97
  Z"
/>
<path fill="#197e65" d="
  M 516.39 190.35
  C 527.11 194.24 538.71 177.31 542.83 169.27
  A 1.29 1.29 0.0 0 1 545.09 169.21
  L 545.40 169.75
  A 3.46 3.45 -49.3 0 1 545.62 172.74
  C 541.86 182.26 534.72 192.15 525.50 196.67
  Q 521.06 198.85 515.63 200.14
  Q 511.28 201.17 506.83 200.07
  Q 496.20 197.45 495.65 185.93
  Q 495.57 184.16 495.60 181.88
  A 0.87 0.87 0.0 0 0 494.03 181.36
  C 488.05 189.69 481.20 196.10 471.47 198.98
  Q 463.81 201.24 458.01 199.41
  Q 451.04 197.22 447.57 191.02
  C 443.09 183.03 445.59 170.43 449.42 161.92
  Q 456.56 146.03 470.91 136.41
  C 481.22 129.50 501.51 123.07 510.04 135.66
  A 0.77 0.77 0.0 0 0 511.32 135.66
  Q 512.51 133.86 513.67 132.67
  C 516.52 129.77 523.69 131.54 526.94 133.66
  A 1.88 1.87 17.7 0 1 527.79 135.30
  Q 527.75 136.42 527.31 138.36
  Q 526.29 142.89 518.97 159.96
  Q 517.67 163.02 514.96 171.44
  C 513.17 177.02 512.08 184.78 515.55 189.71
  A 1.78 1.78 0.0 0 0 516.39 190.35
  Z
  M 469.97 189.31
  Q 476.07 190.30 481.54 186.07
  C 492.74 177.39 499.22 163.28 503.88 149.97
  Q 505.11 146.48 504.82 144.25
  C 504.09 138.64 499.31 134.41 493.49 135.98
  C 479.09 139.90 468.80 159.68 465.85 172.59
  C 464.69 177.70 463.84 185.93 468.90 188.91
  A 2.89 2.87 64.9 0 0 469.97 189.31
  Z"
/>
<path fill="#197e65" d="
  M 955.75 198.59
  C 959.07 198.39 961.76 198.62 963.84 197.60
  A 0.99 0.99 0.0 0 0 964.40 196.71
  L 964.40 153.40
  A 3.33 3.32 -87.0 0 0 961.42 150.09
  L 955.92 149.51
  A 0.42 0.42 0.0 0 1 955.54 149.09
  L 955.54 146.25
  A 0.50 0.49 -3.3 0 1 955.98 145.76
  C 963.85 144.82 971.66 142.11 978.03 140.44
  A 1.32 1.32 0.0 0 1 978.97 140.54
  Q 980.89 141.50 981.03 143.25
  Q 981.50 149.07 981.31 151.16
  A 0.79 0.79 0.0 0 0 982.72 151.73
  Q 985.94 147.74 987.58 146.08
  C 991.27 142.34 997.16 139.52 1002.47 140.66
  C 1004.99 141.20 1006.95 142.15 1006.98 145.06
  Q 1007.03 151.16 1005.35 155.43
  Q 1004.80 156.84 1002.52 158.23
  A 0.86 0.86 0.0 0 1 1001.54 158.17
  Q 999.92 156.88 997.63 155.39
  C 991.96 151.73 985.98 153.61 981.88 158.86
  A 1.58 1.58 0.0 0 0 981.54 159.84
  L 981.54 197.07
  A 0.69 0.68 3.3 0 0 982.15 197.75
  L 992.49 198.84
  A 0.34 0.34 0.0 0 1 992.80 199.18
  L 992.80 202.36
  A 0.24 0.24 0.0 0 1 992.56 202.60
  L 955.86 202.60
  A 0.50 0.49 0.0 0 1 955.36 202.11
  L 955.36 199.01
  A 0.42 0.41 88.6 0 1 955.75 198.59
  Z"
/>
<path fill="#197e65" d="
  M 948.56 194.69
  Q 949.60 195.49 950.20 196.69
  A 0.74 0.73 55.8 0 1 950.04 197.56
  Q 945.54 201.60 942.43 202.89
  C 935.19 205.88 925.91 203.08 922.59 195.72
  A 0.66 0.65 56.9 0 0 921.56 195.50
  Q 913.75 202.48 903.30 204.27
  C 893.87 205.89 885.15 200.59 885.35 190.52
  Q 885.52 182.08 892.82 177.56
  Q 900.28 172.95 909.06 170.63
  Q 914.52 169.18 920.75 166.90
  A 1.23 1.21 81.0 0 0 921.55 165.78
  C 921.65 161.64 922.15 156.67 921.21 153.48
  Q 919.24 146.83 911.37 146.16
  Q 904.98 145.61 903.17 150.81
  C 902.25 153.45 902.69 157.37 902.23 159.63
  A 3.31 3.31 0.0 0 1 899.77 162.20
  C 896.27 163.06 886.44 163.21 887.75 156.64
  Q 888.63 152.27 891.43 149.90
  Q 898.30 144.09 908.27 141.58
  Q 920.71 138.44 931.04 143.83
  Q 936.11 146.47 938.02 151.79
  Q 939.16 154.94 939.09 162.46
  Q 938.98 176.86 939.14 191.00
  Q 939.18 194.58 943.03 196.36
  A 1.15 1.15 0.0 0 0 944.01 196.36
  L 947.90 194.62
  A 0.65 0.65 0.0 0 1 948.56 194.69
  Z
  M 920.88 171.38
  C 914.08 174.27 902.52 177.67 903.90 187.55
  Q 904.38 191.03 907.53 193.08
  C 911.60 195.71 917.57 193.34 920.81 190.08
  A 2.03 2.01 67.7 0 0 921.40 188.65
  L 921.40 171.72
  A 0.37 0.37 0.0 0 0 920.88 171.38
  Z"
/>
<path fill="#197e65" d="
  M 1069.48 192.12
  Q 1064.18 198.50 1059.74 200.68
  C 1041.58 209.61 1015.52 204.16 1011.14 181.45
  Q 1008.08 165.66 1016.80 153.35
  Q 1022.62 145.13 1033.71 141.87
  Q 1046.00 138.26 1057.35 144.35
  Q 1067.05 149.57 1068.66 161.30
  Q 1069.24 165.48 1067.75 168.11
  A 0.94 0.93 -75.0 0 1 1066.94 168.58
  L 1029.68 168.62
  A 1.01 1.01 0.0 0 0 1028.67 169.68
  Q 1028.67 169.70 1029.24 176.07
  Q 1029.55 179.61 1030.66 182.30
  C 1034.56 191.79 1042.38 196.37 1052.56 195.40
  Q 1059.70 194.72 1065.83 189.71
  A 1.03 1.02 -49.6 0 1 1066.99 189.61
  L 1069.27 190.93
  A 0.79 0.79 0.0 0 1 1069.48 192.12
  Z
  M 1029.65 163.53
  L 1050.35 163.53
  A 0.92 0.91 -86.8 0 0 1051.26 162.71
  C 1051.81 157.64 1050.94 149.72 1045.97 147.06
  C 1039.97 143.84 1034.08 147.59 1031.61 153.38
  Q 1029.62 158.03 1029.22 163.06
  A 0.43 0.43 0.0 0 0 1029.65 163.53
  Z"
/>
<path fill="#20886e" d="
  M 645.43 177.11
  A 3.63 3.63 0.0 0 0 649.03 180.83
  Q 688.85 181.16 696.72 180.75
  Q 705.45 180.30 711.79 173.37
  C 713.16 171.88 714.40 168.68 715.61 166.28
  A 2.09 2.06 0.3 0 1 716.52 165.39
  C 729.01 159.14 740.73 152.13 753.70 145.17
  Q 758.65 142.51 762.52 143.40
  A 5.09 5.09 0.0 0 1 763.45 143.71
  Q 768.91 146.12 768.44 152.28
  A 6.61 6.40 -36.9 0 1 768.28 153.29
  Q 767.45 156.90 762.31 160.81
  Q 733.58 182.66 722.93 189.92
  Q 709.85 198.83 696.84 204.82
  C 687.91 208.93 680.15 211.64 670.54 211.10
  Q 657.93 210.40 637.87 206.90
  Q 608.93 201.85 608.49 201.79
  C 602.53 200.96 600.08 200.78 594.75 202.77
  Q 591.03 204.16 571.09 212.06
  Q 570.88 212.14 567.28 213.35
  A 1.29 1.29 0.0 0 1 565.59 212.13
  Q 565.60 182.79 565.51 164.75
  C 565.49 160.89 566.57 160.52 569.81 158.20
  Q 585.01 147.32 602.24 142.78
  C 615.55 139.28 628.70 140.38 642.49 144.09
  C 648.93 145.82 656.19 149.64 661.69 151.32
  C 667.10 152.96 673.23 153.72 679.18 153.66
  Q 688.13 153.58 698.23 153.75
  C 702.62 153.82 707.67 157.16 708.52 162.20
  C 709.93 170.51 701.13 172.65 694.93 173.13
  Q 693.95 173.21 649.22 173.26
  A 3.79 3.79 0.0 0 0 645.43 176.96
  L 645.43 177.11
  Z"
/>
<path fill="#fffefe" d="
  M 289.02 142.97
  L 290.03 143.01
  Q 289.91 144.37 288.82 144.92
  A 0.39 0.38 -15.0 0 1 288.26 144.60
  Q 288.22 143.81 289.02 142.97
  Z"
/>
<path fill="#fffefe" d="
  M 1029.65 163.53
  A 0.43 0.43 0.0 0 1 1029.22 163.06
  Q 1029.62 158.03 1031.61 153.38
  C 1034.08 147.59 1039.97 143.84 1045.97 147.06
  C 1050.94 149.72 1051.81 157.64 1051.26 162.71
  A 0.92 0.91 -86.8 0 1 1050.35 163.53
  L 1029.65 163.53
  Z"
/>
<path fill="#fffefe" d="
  M 920.88 171.38
  A 0.37 0.37 0.0 0 1 921.40 171.72
  L 921.40 188.65
  A 2.03 2.01 67.7 0 1 920.81 190.08
  C 917.57 193.34 911.60 195.71 907.53 193.08
  Q 904.38 191.03 903.90 187.55
  C 902.52 177.67 914.08 174.27 920.88 171.38
  Z"
/>
<path fill="#fffefe" d="
  M 321.62 184.62
  Q 322.36 185.12 322.77 185.11
  Q 321.94 186.13 320.65 186.30
  A 0.28 0.28 0.0 0 1 320.36 185.89
  Q 320.87 184.88 321.62 184.62
  Z"
/>
<path fill="#20886e" d="
  M 254.84 192.08
  L 253.96 191.92
  Q 253.91 191.50 254.21 191.23
  Q 254.55 190.94 254.92 191.10
  Q 255.32 191.27 255.19 191.69
  Q 255.11 191.94 254.84 192.08
  Z"
/>
</svg>
